<svg width="40" height="40" viewBox="0 0 40 40" fill="none" xmlns="http://www.w3.org/2000/svg">
<path d="M0.9375 33.125V6.875H5.93628V33.125H0.9375Z" fill="white"/>
<path d="M10.2436 33.125V11.9154H7.17285V6.875H18.4937V11.9154H15.423V33.121H10.2436V33.125Z" fill="white"/>
<path d="M19.9395 6.875H27.8912C29.1556 6.875 30.1333 7.16587 30.8284 7.74761C31.5195 8.32935 31.9868 9.14219 32.2302 10.1941C32.4698 11.242 32.5915 12.5848 32.5915 14.2105C32.5915 15.6967 32.3991 16.8602 32.0182 17.693C31.6373 18.5297 30.9737 19.1075 30.0313 19.4342C30.8127 19.5976 31.3821 19.996 31.7315 20.6256C32.081 21.2551 32.2577 22.1118 32.2577 23.1916L32.1988 33.121H27.1412V22.8529C27.1412 22.1198 26.9998 21.6496 26.721 21.4464C26.4383 21.2432 25.9278 21.1396 25.1856 21.1396V33.117H19.9473V6.875H19.9395ZM26.4461 16.5932C27.1686 16.5932 27.5299 15.8003 27.5299 14.2105C27.5299 13.5172 27.4985 12.9992 27.4396 12.6525C27.3807 12.3059 27.2707 12.0668 27.1097 11.9353C26.9487 11.8038 26.7171 11.7361 26.4186 11.7361H25.2131V16.5932H26.4461Z" fill="white"/>
<path d="M34.0635 33.1249V13.0549H39.0623V33.1249H34.0635Z" fill="white"/>
<path d="M39.0623 9.41114C39.0623 8.01047 37.9432 6.875 36.5629 6.875C35.1825 6.875 34.0635 8.01047 34.0635 9.41114C34.0635 10.8118 35.1825 11.9473 36.5629 11.9473C37.9432 11.9473 39.0623 10.8118 39.0623 9.41114Z" fill="#FFA237"/>
</svg>
